<svg xmlns="http://www.w3.org/2000/svg" width="75" height="75" fill="none" aria-hidden="true" style="display:inline"><g fill="#000" clip-path="url(#a)"><path d="M22.996 12.31c4.248 4.368 9.264 6.676 14.505 6.676 5.241 0 10.257-2.311 14.505-6.677a29.18 29.18 0 0 0 4.837-6.59 1.734 1.734 0 0 0-3.1-1.552c-.061.107-5.84 11.352-16.242 11.352-10.402 0-16.18-11.245-16.241-11.346a1.734 1.734 0 0 0-3.1 1.545 29.18 29.18 0 0 0 4.836 6.591Z"/><path d="M37.502 8.714a9.379 9.379 0 0 0 9.113-6.501 1.736 1.736 0 1 0-3.334-.971c-.124.41-1.35 4.005-5.779 4.005-4.43 0-5.73-3.84-5.793-4.045a1.737 1.737 0 0 0-3.311 1.048 9.509 9.509 0 0 0 9.104 6.464ZM52.005 62.694c-4.247-4.369-9.263-6.677-14.504-6.677-5.242 0-10.258 2.311-14.505 6.677a29.182 29.182 0 0 0-4.837 6.59 1.734 1.734 0 1 0 3.103 1.55c.055-.113 5.78-11.344 16.239-11.344 10.402 0 16.18 11.234 16.24 11.346a1.734 1.734 0 0 0 3.101-1.551 29.182 29.182 0 0 0-4.837-6.591Z"/><path d="M37.499 66.286a9.373 9.373 0 0 0-9.113 6.504 1.737 1.737 0 0 0 3.334.97c.124-.41 1.35-4.007 5.779-4.007 4.43 0 5.732 3.849 5.793 4.046a1.736 1.736 0 0 0 3.311-1.046 9.515 9.515 0 0 0-9.104-6.467ZM39.01 47.368c5.448-.874 9.155-6 8.28-11.449-.874-5.448-6-9.156-11.448-8.281-5.449.875-9.156 6-8.282 11.449.875 5.448 6 9.156 11.45 8.281ZM12.308 22.996a29.186 29.186 0 0 0-6.59-4.836 1.734 1.734 0 0 0-1.552 3.1c.107.06 11.352 5.84 11.352 16.241 0 10.402-11.245 16.18-11.346 16.241a1.734 1.734 0 0 0 1.545 3.1 29.186 29.186 0 0 0 6.585-4.836c4.37-4.248 6.678-9.264 6.678-14.505 0-5.241-2.303-10.257-6.672-14.505Z"/><path d="M8.713 37.5a9.376 9.376 0 0 0-6.501-9.112 1.735 1.735 0 1 0-.971 3.334c.41.124 4.005 1.35 4.005 5.779 0 4.43-3.84 5.73-4.045 5.793a1.737 1.737 0 0 0 1.048 3.311 9.509 9.509 0 0 0 6.464-9.104ZM70.832 53.743c-.101-.06-11.347-5.84-11.347-16.241 0-10.402 11.234-16.18 11.347-16.241a1.734 1.734 0 0 0-1.546-3.1 29.18 29.18 0 0 0-6.585 4.836c-4.369 4.248-6.678 9.264-6.678 14.505 0 5.241 2.312 10.257 6.678 14.505a29.181 29.181 0 0 0 6.585 4.837 1.733 1.733 0 0 0 1.551-3.1h-.005Z"/><path d="M73.762 43.28c-.41-.124-4.008-1.349-4.008-5.779 0-4.429 3.849-5.732 4.045-5.793a1.735 1.735 0 1 0-1.046-3.311 9.513 9.513 0 0 0-6.466 9.105 9.377 9.377 0 0 0 6.504 9.113 1.734 1.734 0 0 0 2.132-1.176 1.734 1.734 0 0 0-1.161-2.159Z"/></g><defs><clipPath id="a"><path fill="#fff" d="M0 0h75v75H0z"/></clipPath></defs></svg>