<svg xmlns="http://www.w3.org/2000/svg" width="34.637" height="53.793" style="display:inline"><g data-name="Group 2987" transform="translate(0 1)"><path d="M7 5.11a4 4 0 0 0-4 4v36.682a4 4 0 0 0 4 4h20.636a4 4 0 0 0 4-4V9.11a4 4 0 0 0-4-4H7m0-3h20.636a7 7 0 0 1 7 7v36.682a7 7 0 0 1-7 7H7a7 7 0 0 1-7-7V9.11a7 7 0 0 1 7-7Z" data-name="Rectangle 1315"/><rect width="13.219" height="5.649" data-name="Rectangle 1316" rx="2" transform="translate(10.709 -1)"/></g><g data-name="Group 2986"><path d="M25.928 13.062H8.709a1 1 0 0 1-1-1 1 1 0 0 1 1-1h17.219a1 1 0 0 1 1 1 1 1 0 0 1-1 1Z" data-name="Line 7"/><path d="M25.928 19.905H8.709a1 1 0 0 1-1-1 1 1 0 0 1 1-1h17.219a1 1 0 0 1 1 1 1 1 0 0 1-1 1Z" data-name="Line 8"/><path d="M25.928 26.747H8.709a1 1 0 0 1-1-1 1 1 0 0 1 1-1h17.219a1 1 0 0 1 1 1 1 1 0 0 1-1 1Z" data-name="Line 9"/><path d="M25.928 33.59H8.709a1 1 0 0 1-1-1 1 1 0 0 1 1-1h17.219a1 1 0 0 1 1 1 1 1 0 0 1-1 1Z" data-name="Line 10"/><path d="M25.928 39.716H8.709a1 1 0 0 1-1-1 1 1 0 0 1 1-1h17.219a1 1 0 0 1 1 1 1 1 0 0 1-1 1Z" data-name="Line 11"/><path d="M25.928 45.842H8.709a1 1 0 0 1-1-1 1 1 0 0 1 1-1h17.219a1 1 0 0 1 1 1 1 1 0 0 1-1 1Z" data-name="Line 12"/></g></svg>