<svg xmlns="http://www.w3.org/2000/svg" width="70" height="70" fill="none" style="display:inline"><path fill="#000" d="M52.1 34h-.2C42.03 34 34 42.075 34 52s8.03 18 17.9 18h.2C61.97 70 70 61.925 70 52s-8.03-18-17.9-18Zm0 34h-.2C43.132 68 36 60.822 36 52s7.133-16 15.9-16h.2C60.868 36 68 43.178 68 52s-7.133 16-15.9 16ZM65 18V5H52v2h11v11h2ZM5 52v13h13v-2H7V52H5ZM25.479 18.878v-1.756l-11-6L13 12v12l1.479.878 11-6ZM15 13.685 22.912 18 15 22.315v-8.63Z"/><path fill="#000" d="M17.901 36h.199C27.97 36 36 27.925 36 17.999 36 8.074 27.97 0 18.099 0H17.9C8.03 0 0 8.074 0 17.999 0 27.925 8.03 36 17.901 36ZM17.9 2h.199C26.867 2 34 9.177 34 17.999 34 26.822 26.867 34 18.1 34h-.199C9.133 34 2 26.822 2 17.999 2 9.177 9.133 2 17.9 2ZM54.128 56.34a12.47 12.47 0 0 1-3.844-2.622 12.462 12.462 0 0 1-2.628-3.851l1.779-.087-.406-5.777L44.025 44c-.017.293-.025.589-.025.886C44 53.233 50.77 60 59.121 60c.295 0 .588-.009.879-.026v-5.025l-5.773-.405-.099 1.796Z"/></svg>