<svg xmlns="http://www.w3.org/2000/svg" width="70" height="70" fill="none" aria-hidden="true" style="display:inline"><path fill="#161616" d="M31.3 70H5c-2.8 0-5-2.2-5-5V11.1c0-2.8 2.2-5 5-5h14.3v2H5c-1.7 0-3 1.3-3 3V65c0 1.7 1.3 3 3 3h26.3v2Z"/><path fill="#161616" d="M47 70H25c-3.3 0-6-2.704-6-6.009V6.01C19 2.704 21.7 0 25 0h22c3.3 0 6 2.704 6 6.009v8.812h-2V6.01c0-2.204-1.8-4.006-4-4.006H25c-2.2 0-4 1.802-4 4.006V63.99c0 2.204 1.8 4.006 4 4.006h22V70Z"/><path fill="#161616" d="M65 70H45c-2.8 0-5-2.204-5-5.009V18.01C40 15.204 42.2 13 45 13h20c2.8 0 5 2.204 5 5.009V64.99C70 67.796 67.8 70 65 70ZM45 15.004c-1.7 0-3 1.302-3 3.005V64.99c0 1.703 1.3 3.005 3 3.005h20c1.7 0 3-1.302 3-3.005V18.01c0-1.703-1.3-3.005-3-3.005H45Z"/><path fill="#161616" d="M65 64.9H45c-2.8 0-5-2.2-5-5V23c0-2.8 2.2-5 5-5h20c2.8 0 5 2.2 5 5v37c0 2.7-2.2 4.9-5 4.9ZM45 20c-1.7 0-3 1.3-3 3v37c0 1.7 1.3 3 3 3h20c1.7 0 3-1.3 3-3V23c0-1.7-1.3-3-3-3H45ZM15 65.9c-1.7 0-3-1.3-3-3s1.3-3 3-3 3 1.3 3 3-1.4 3-3 3Zm0-4c-.6 0-1 .4-1 1s.4 1 1 1 1-.4 1-1-.5-1-1-1ZM43.2 1v2c0 1.1-.9 2-2 2h-11c-1.1 0-2-.9-2-2V1"/></svg>